<svg width="9" height="16" viewBox="0 0 9 16" fill="none" xmlns="http://www.w3.org/2000/svg">
<path d="M0.459986 15.523C0.319986 15.383 0.249986 15.211 0.249986 15.008C0.246281 14.9084 0.263002 14.8091 0.299118 14.7163C0.335234 14.6234 0.389981 14.5389 0.459986 14.468L6.92999 7.99999L0.459986 1.53099C0.319986 1.391 0.249986 1.219 0.249986 1.016C0.246281 0.916419 0.263002 0.817138 0.299118 0.724268C0.335234 0.631398 0.389981 0.546906 0.459986 0.475994C0.529204 0.40213 0.612841 0.343252 0.705723 0.303003C0.798605 0.262754 0.898758 0.24199 0.999986 0.241995C1.10129 0.242119 1.20148 0.263039 1.29437 0.303461C1.38726 0.343884 1.47085 0.402947 1.53999 0.476994L8.17199 7.10899C8.42199 7.35899 8.54699 7.65599 8.54699 7.99999C8.54699 8.34399 8.42199 8.64 8.17199 8.89L1.53899 15.524C1.46985 15.5977 1.38636 15.6565 1.29367 15.6967C1.20098 15.7369 1.10104 15.7578 0.999986 15.758C0.796986 15.758 0.616986 15.68 0.459986 15.523Z" fill="#9E9E9E"/>
</svg>
