<svg width="16" height="9" viewBox="0 0 16 9" fill="none" xmlns="http://www.w3.org/2000/svg">
<path d="M0.477188 0.460016C0.617188 0.320016 0.789188 0.250016 0.992188 0.250016C1.09176 0.246312 1.19104 0.263033 1.28391 0.299149C1.37678 0.335265 1.46128 0.390011 1.53219 0.460016L8.00019 6.93002L14.4692 0.460016C14.6092 0.320016 14.7812 0.250016 14.9842 0.250016C15.0838 0.246312 15.183 0.263033 15.2759 0.299149C15.3688 0.335265 15.4533 0.390011 15.5242 0.460016C15.5981 0.529235 15.6569 0.612871 15.6972 0.705754C15.7374 0.798636 15.7582 0.898788 15.7582 1.00002C15.7581 1.10132 15.7371 1.20151 15.6967 1.2944C15.6563 1.38729 15.5972 1.47089 15.5232 1.54002L8.89119 8.17202C8.64119 8.42202 8.34419 8.54702 8.00019 8.54702C7.65619 8.54702 7.36019 8.42202 7.11019 8.17202L0.476187 1.53902C0.402493 1.46988 0.343718 1.38639 0.303477 1.2937C0.263236 1.20101 0.242379 1.10107 0.242188 1.00002C0.242187 0.797016 0.320188 0.617016 0.477188 0.460016Z" fill="#616161"/>
</svg>
