<svg width="20" height="20" viewBox="0 0 20 20" fill="none" xmlns="http://www.w3.org/2000/svg">
<path d="M10.0003 20.008C8.66239 20.0154 7.33756 19.744 6.11034 19.211C4.91912 18.714 3.83625 17.9895 2.92234 17.078C2.01097 16.1644 1.28646 15.0818 0.789343 13.891C0.25619 12.6634 -0.0152494 11.3383 -0.00765754 9.99998C-0.0151103 8.66202 0.256326 7.3372 0.789343 6.10998C1.28639 4.91878 2.01091 3.83592 2.92234 2.92198C3.83599 2.01065 4.9185 1.28614 6.10934 0.788976C7.33687 0.255823 8.66205 -0.0156156 10.0003 -0.00802375C11.3383 -0.0154765 12.6631 0.25596 13.8903 0.788976C15.0815 1.286 16.1644 2.01052 17.0783 2.92198C17.9897 3.83559 18.7142 4.91811 19.2113 6.10898C19.7445 7.3365 20.0159 8.66169 20.0083 9.99998C20.0158 11.3379 19.7444 12.6628 19.2113 13.89C18.7144 15.0812 17.9898 16.1641 17.0783 17.078C16.1647 17.9894 15.0822 18.7139 13.8913 19.211C12.6638 19.7441 11.3386 20.0156 10.0003 20.008ZM10.0003 18.508C11.1375 18.5151 12.2634 18.2834 13.3053 17.828C14.3122 17.4067 15.2275 16.7936 16.0003 16.023C16.7801 15.244 17.4009 14.3209 17.8283 13.305C18.2838 12.263 18.5155 11.1371 18.5083 9.99998C18.5155 8.86286 18.2838 7.73691 17.8283 6.69498C17.4045 5.68393 16.783 4.76769 16.0003 3.99998C15.2326 3.21733 14.3164 2.59584 13.3053 2.17198C12.2634 1.7165 11.1375 1.48484 10.0003 1.49198C8.86323 1.48484 7.73728 1.7165 6.69534 2.17198C5.67943 2.5994 4.75631 3.22025 3.97734 3.99998C3.2067 4.77283 2.59366 5.68815 2.17234 6.69498C1.71687 7.73691 1.48521 8.86286 1.49234 9.99998C1.49234 11.172 1.71934 12.273 2.17234 13.305C2.59722 14.3167 3.20965 15.2389 3.97734 16.023C4.76137 16.7907 5.6836 17.4031 6.69534 17.828C7.73728 18.2834 8.86323 18.5151 10.0003 18.508Z" fill="#D31E2A"/>
<path d="M10.5164 5.21797C10.3754 5.07797 10.2034 5.00797 10.0004 5.00797C9.80011 5.00625 9.60683 5.08141 9.46036 5.21797C9.39035 5.28888 9.33561 5.37337 9.29949 5.46624C9.26338 5.55911 9.24665 5.65839 9.25036 5.75797V11.242C9.24665 11.3415 9.26338 11.4408 9.29949 11.5337C9.33561 11.6266 9.39035 11.7111 9.46036 11.782C9.60683 11.9185 9.80011 11.9937 10.0004 11.992C10.0962 11.9941 10.1914 11.9765 10.2801 11.9404C10.3689 11.9043 10.4493 11.8504 10.5164 11.782C10.5926 11.7146 10.6531 11.6314 10.6935 11.538C10.734 11.4447 10.7534 11.3436 10.7504 11.242V5.75797C10.7504 5.53897 10.6724 5.35897 10.5164 5.21797Z" fill="#D31E2A"/>
<path d="M10.6909 13.4659C10.7313 13.5551 10.7517 13.6521 10.7504 13.75V14.242C10.7534 14.3436 10.734 14.4447 10.6936 14.538C10.6531 14.6314 10.5926 14.7146 10.5164 14.782C10.3754 14.922 10.2034 14.992 10.0004 14.992C9.79739 14.992 9.61739 14.922 9.46039 14.782C9.32039 14.641 9.25039 14.461 9.25039 14.242V13.75C9.24827 13.6542 9.26581 13.559 9.30193 13.4702C9.33805 13.3815 9.39198 13.3011 9.46039 13.234C9.52965 13.1602 9.61329 13.1013 9.70616 13.0611C9.79904 13.0208 9.89917 13 10.0004 13C10.0983 12.9987 10.1953 13.019 10.2845 13.0595C10.3737 13.0999 10.4528 13.1595 10.5164 13.234C10.5909 13.2975 10.6505 13.3767 10.6909 13.4659Z" fill="#D31E2A"/>
</svg>
