<svg width="68" height="16" viewBox="0 0 68 16" fill="none" xmlns="http://www.w3.org/2000/svg">
<path d="M14.3102 4.59805H12.4321C12.3222 4.59805 12.2337 4.68803 12.2337 4.79972V15.7302C12.2337 15.8419 12.3222 15.9319 12.4321 15.9319H14.3102C14.4201 15.9319 14.5086 15.8419 14.5086 15.7302V4.79972C14.5076 4.68803 14.4191 4.59805 14.3102 4.59805Z" fill="#C209C1"/>
<path d="M35.1461 10.2405C34.4787 9.75653 33.5295 9.42973 32.159 9.20947C30.4589 8.9116 29.5371 8.59613 29.5371 7.77913C29.5371 7.14107 30.12 6.45847 31.7561 6.45847C32.5649 6.45847 33.1845 6.72013 33.5976 7.2362C33.794 7.48027 33.9425 7.78227 34.0402 8.1318C34.0788 8.2704 34.203 8.3676 34.3434 8.3676L35.8187 8.3666C35.9113 8.3666 35.9998 8.3252 36.0588 8.2528C36.1188 8.1794 36.1442 8.0842 36.128 7.99013C35.8706 6.50397 34.9935 5.68695 34.7311 5.47184C33.9649 4.84408 32.9638 4.52658 31.7561 4.52658C30.4965 4.52658 29.4099 4.83995 28.6153 5.43357C27.8074 6.03755 27.3801 6.87113 27.3801 7.84533C27.3801 10.1599 29.4679 10.829 31.7245 11.2075C33.8611 11.5302 34.1491 12.1217 34.1491 12.6585C34.1491 13.5262 33.2324 14.0661 31.7561 14.0661C31.4987 14.0661 31.2545 14.0443 31.0296 14.0019C31.0235 13.9988 31.0174 13.9957 31.0103 13.9947C30.0366 13.7961 29.3855 13.1787 29.0192 12.1104C28.9754 11.9821 28.8564 11.8953 28.7221 11.8953H27.1644C27.0708 11.8953 26.9833 11.9377 26.9233 12.0101C26.8633 12.0835 26.8388 12.1797 26.8551 12.2727C26.963 12.8726 27.2448 13.3897 27.257 13.4114L27.2581 13.4135C27.9295 14.8872 29.2196 15.7673 30.991 15.9597C30.994 15.9597 30.9961 15.9607 30.9991 15.9597C31.2474 15.9865 31.5017 16 31.7561 16C33.036 16 34.1939 15.6659 35.0159 15.0599C35.8472 14.4466 36.306 13.5789 36.306 12.6151C36.306 11.5829 35.9265 10.8063 35.1461 10.2405Z" fill="#C209C1"/>
<path d="M67.9044 12.7817C67.8197 12.6741 67.6946 12.6131 67.5593 12.6131H66.0883C65.9061 12.6131 65.7445 12.7269 65.6758 12.9037C65.4378 13.5149 64.8887 13.8375 64.0817 13.8375H64.0735C62.9422 13.8365 62.3449 13.2201 62.3449 12.0557V6.7502C62.3449 6.70573 62.3805 6.67053 62.4232 6.67053H66.835C67.0782 6.67053 67.2751 6.46992 67.2751 6.22275V5.04583C67.2751 4.79865 67.0782 4.59802 66.835 4.59802H62.4232C62.3795 4.59802 62.3449 4.56182 62.3449 4.51839V2.1149C62.3449 1.86773 62.1475 1.66709 61.9044 1.66709H60.5064C60.2633 1.66709 60.0659 1.86773 60.0659 2.1149V12.1456C60.0659 14.4871 61.6317 15.9991 64.0542 15.9991L64.0766 15.998H64.0867C64.0939 15.998 64.1 15.9991 64.1071 15.9991C66.1441 15.9991 67.5959 14.9359 67.9885 13.156C68.0192 13.0247 67.9878 12.8871 67.9044 12.7817Z" fill="#C209C1"/>
<path d="M57.675 5.9787C56.7797 5.0655 55.5873 4.54943 54.3155 4.52771C53.0234 4.506 51.7994 4.99724 50.8684 5.91561C49.9171 6.8536 49.3932 8.10813 49.3932 9.4474C49.3932 9.4474 49.3932 9.89313 49.3932 10.553V15.7323C49.3932 15.8439 49.4817 15.9339 49.5916 15.9339H51.4698C51.5796 15.9339 51.6681 15.8439 51.6681 15.7323V9.38227C51.6681 8.68627 51.9419 8.03367 52.4394 7.54553C52.9368 7.0574 53.5931 6.79673 54.287 6.81327C55.6198 6.84327 56.7889 7.99433 56.7889 9.27573L56.7878 9.39053C56.7868 9.44533 56.8082 9.49707 56.8468 9.53633C56.8855 9.57567 56.9364 9.59633 56.9913 9.59733C57.4166 9.5984 58.4168 9.5984 58.8604 9.59733C58.9722 9.59733 59.0638 9.50533 59.0638 9.3926V9.3802C59.0638 8.10087 58.5704 6.89293 57.675 5.9787Z" fill="#C209C1"/>
<path d="M25.7267 11.8975H24.0622C23.992 11.8975 23.9269 11.9285 23.8821 11.9813C23.8627 12.0029 23.8475 12.0267 23.8363 12.0547C23.3835 13.2357 22.419 13.9141 21.188 13.9141C20.2713 13.9141 19.4431 13.5491 18.856 12.8872C18.27 12.2263 17.9474 11.2987 17.9474 10.2738C17.9474 9.2396 18.27 8.30467 18.856 7.64073C19.442 6.97673 20.2702 6.61167 21.188 6.61167C22.4363 6.61167 23.409 7.29633 23.8577 8.4898C23.8943 8.587 23.9828 8.64907 24.0825 8.64907H25.747C25.8233 8.64907 25.8936 8.61387 25.9414 8.5508C25.979 8.50013 25.9943 8.436 25.9902 8.37293C25.979 8.2116 25.9505 8.043 25.9058 7.87447C25.8986 7.8434 25.8823 7.79167 25.8823 7.79167C25.6524 7.01193 25.1569 6.40897 25.1356 6.38312C25.1345 6.38209 25.1335 6.38105 25.1325 6.38001C24.2229 5.18345 22.823 4.52569 21.188 4.52569C19.6231 4.52569 18.21 5.13484 17.2098 6.24143C16.2534 7.2994 15.7264 8.7318 15.7264 10.2727C15.7264 11.8023 16.2473 13.2243 17.1946 14.2772C18.2069 15.4034 19.5875 15.9981 21.189 15.9981C21.8707 15.9981 22.4933 15.8957 23.0489 15.693C24.3369 15.1728 25.3553 14.3009 25.8854 12.67C25.9302 12.5015 25.9597 12.3329 25.9698 12.1715C25.9739 12.1085 25.9597 12.0443 25.921 11.9937C25.8732 11.9327 25.803 11.8975 25.7267 11.8975Z" fill="#C209C1"/>
<path d="M13.3831 0C12.4542 0 11.6972 0.768413 11.6972 1.71367C11.6972 2.65893 12.4532 3.42734 13.3831 3.42734C14.2988 3.42734 15.0446 2.65893 15.0446 1.71367C15.0446 0.768413 14.2988 0 13.3831 0Z" fill="#C209C1"/>
<path d="M5.51955 0H5.51141C4.07276 0 2.71144 0.572947 1.67774 1.61439C1.58006 1.71263 1.39897 1.91844 1.39897 1.91844C1.3369 1.99083 1.27687 2.06427 1.21888 2.13976C1.21175 2.14907 1.19548 2.17079 1.19548 2.17079C0.469035 3.11811 0.0488365 4.27435 0 5.49988V15.7291C0 15.7705 0.0122091 15.8098 0.0335751 15.8419C0.0691849 15.8957 0.130231 15.9308 0.198398 15.9308H2.07453C2.18442 15.9308 2.27293 15.8409 2.27293 15.7291V10.523C2.27293 10.4868 2.29735 10.4703 2.30753 10.4651C2.32991 10.4537 2.35535 10.4557 2.3757 10.4703C3.29952 11.1363 4.38409 11.4827 5.51039 11.4827C6.37011 11.4827 7.1688 11.28 7.90641 10.9119C9.75916 9.98727 11.0391 8.0202 11.0391 5.73878C11.0391 2.56585 8.56774 0 5.51955 0ZM5.51141 9.2892C3.66172 9.2892 2.15695 7.6986 2.15695 5.74395C2.15695 3.78931 3.66172 2.19871 5.51141 2.19871C7.36106 2.19871 8.86585 3.78931 8.86585 5.74395C8.86585 7.6986 7.36106 9.2892 5.51141 9.2892Z" fill="#C209C1"/>
<path d="M48.107 10.1952C48.0714 7.0626 45.6133 4.52569 42.5946 4.52569C39.5545 4.52569 37.0812 7.0998 37.0812 10.2635C37.0812 12.8024 38.6755 14.9608 40.8761 15.7137C40.8853 15.7168 40.8955 15.7199 40.9046 15.724C40.9301 15.7323 40.9555 15.7416 40.982 15.7499C41.4673 15.9112 42.0045 15.9991 42.5702 15.9991C43.9437 15.9991 45.2501 15.4737 45.9399 14.6774C45.9715 14.6412 46.0314 14.6639 46.0314 14.7126C46.0314 15.1263 46.0314 15.5875 46.0314 15.6733V15.7271C46.0314 15.8399 46.122 15.9319 46.2329 15.9319H47.9066C48.0175 15.9319 48.108 15.8399 48.108 15.7271V10.1952H48.107ZM42.5946 13.7963C40.7235 13.7963 39.2015 12.2109 39.2015 10.2635C39.2015 8.31607 40.7235 6.7306 42.5946 6.7306C44.4657 6.7306 45.9877 8.31607 45.9877 10.2635C45.9877 12.2109 44.4657 13.7963 42.5946 13.7963Z" fill="#C209C1"/>
</svg>
