<svg width="18" height="18" viewBox="0 0 18 18" fill="none" xmlns="http://www.w3.org/2000/svg">
<path d="M8.74202 1.148L7.97003 5.25H11.439L12.259 0.866998C12.2792 0.770719 12.3186 0.679522 12.375 0.598914C12.4314 0.518306 12.5035 0.449958 12.587 0.397998C12.6663 0.337764 12.757 0.294291 12.8536 0.270223C12.9502 0.246155 13.0508 0.241995 13.149 0.257998C13.353 0.304998 13.509 0.413998 13.619 0.585998C13.743 0.757998 13.782 0.945998 13.735 1.148L12.962 5.25H16.993C17.212 5.25 17.392 5.328 17.533 5.484C17.673 5.625 17.743 5.797 17.743 6C17.743 6.203 17.673 6.383 17.533 6.54C17.4621 6.61 17.3776 6.66475 17.2848 6.70087C17.1919 6.73698 17.0926 6.7537 16.993 6.75H12.68L11.836 11.25H16.008C16.211 11.25 16.383 11.328 16.523 11.484C16.68 11.625 16.758 11.797 16.758 12C16.7578 12.1013 16.7369 12.2015 16.6965 12.2943C16.6561 12.3872 16.597 12.4708 16.523 12.54C16.4561 12.6083 16.3758 12.6621 16.2872 12.6983C16.1987 12.7344 16.1037 12.752 16.008 12.75H11.555L10.735 17.133C10.7207 17.2316 10.6862 17.3261 10.6338 17.4108C10.5813 17.4954 10.5119 17.5683 10.43 17.625C10.2637 17.7332 10.0627 17.775 9.86702 17.742C9.66794 17.6977 9.49253 17.5807 9.37502 17.414C9.26703 17.2479 9.22527 17.0474 9.25803 16.852L10.031 12.75H6.56203L5.74202 17.133C5.69768 17.3321 5.58074 17.5075 5.41402 17.625C5.24795 17.733 5.0474 17.7747 4.85203 17.742C4.65257 17.6979 4.47677 17.5809 4.35903 17.414C4.30556 17.3318 4.2697 17.2395 4.25369 17.1427C4.23769 17.046 4.24188 16.947 4.26602 16.852L5.03902 12.75H1.00802C0.908448 12.7537 0.809168 12.737 0.716298 12.7009C0.623429 12.6648 0.538936 12.61 0.468025 12.54C0.331465 12.3935 0.2563 12.2002 0.258025 12C0.258025 11.797 0.328025 11.625 0.468025 11.484C0.535347 11.4078 0.618626 11.3473 0.711951 11.3068C0.805276 11.2664 0.906359 11.247 1.00802 11.25H5.32002L6.16402 6.75H1.99202C1.79212 6.75147 1.59924 6.67632 1.45302 6.54C1.31646 6.39353 1.2413 6.20025 1.24302 6C1.24302 5.797 1.31302 5.625 1.45302 5.484C1.52228 5.41018 1.60592 5.35134 1.6988 5.31109C1.79167 5.27084 1.89181 5.25005 1.99302 5.25H6.44502L7.26503 0.866998C7.2776 0.771004 7.31152 0.679048 7.3643 0.597887C7.41708 0.516726 7.48738 0.448423 7.57002 0.397998C7.64943 0.337632 7.74031 0.294085 7.83711 0.270014C7.9339 0.245944 8.03459 0.241855 8.13303 0.257998C8.33603 0.304998 8.49302 0.413998 8.60203 0.585998C8.72703 0.757998 8.77302 0.945998 8.74202 1.148ZM10.312 11.25L11.156 6.75H7.68703L6.84402 11.25H10.312Z" fill="#616161" fill-opacity="0.380392"/>
</svg>
