<svg width="18" height="2" viewBox="0 0 18 2" fill="none" xmlns="http://www.w3.org/2000/svg">
<path d="M2.90246e-05 1C2.90246e-05 0.797 0.0700291 0.625 0.210029 0.484C0.279247 0.410136 0.362884 0.351257 0.455766 0.311008C0.548648 0.270759 0.648801 0.249995 0.750029 0.25H17.25C17.453 0.25 17.625 0.328 17.766 0.484C17.922 0.625 18 0.797 18 1C18 1.10122 17.9792 1.20135 17.9389 1.29423C17.8987 1.3871 17.8398 1.47074 17.766 1.54C17.6989 1.60841 17.6185 1.66234 17.5298 1.69846C17.441 1.73458 17.3458 1.75212 17.25 1.75H0.750029C0.54978 1.75172 0.356501 1.67656 0.210029 1.54C0.073469 1.39353 -0.0016953 1.20025 2.90246e-05 1Z" fill="#616161"/>
</svg>
