<svg width="22" height="22" viewBox="0 0 22 22" fill="none" xmlns="http://www.w3.org/2000/svg">
<path d="M20.4617 1.12164C21.1535 1.81464 21.5 2.66164 21.5 3.66498C21.5 4.64964 21.1535 5.48848 20.4617 6.18148L16.9337 9.68148L18.8202 11.5948C18.9084 11.6797 18.9782 11.7818 19.0254 11.8948C19.0726 12.0078 19.096 12.1292 19.0944 12.2516C19.0945 12.5064 18.9963 12.7513 18.8202 12.9353C18.7309 13.0251 18.6242 13.0956 18.5066 13.1425C18.389 13.1895 18.2631 13.2119 18.1365 13.2083C18.0144 13.21 17.8932 13.1866 17.7805 13.1396C17.6677 13.0927 17.5657 13.0232 17.4809 12.9353L15.5944 11.0208L5.91453 20.7006C5.80201 20.8306 5.66164 20.9335 5.50386 21.0016C5.35803 21.0565 5.19353 21.0833 5.01153 21.0833H1.7577C1.42212 21.0872 1.09839 20.9594 0.855863 20.7275C0.623791 20.485 0.496037 20.1612 0.50003 19.8256V16.5706C0.50003 16.3898 0.526863 16.2253 0.581696 16.0795C0.649851 15.9217 0.752741 15.7813 0.882697 15.6688L10.5625 5.98898L8.6492 4.10248C8.56114 4.01771 8.49138 3.9158 8.44423 3.80303C8.39708 3.69026 8.37353 3.56903 8.37503 3.44681C8.37503 3.17264 8.46603 2.94514 8.64803 2.76314C8.83225 2.58749 9.07715 2.48969 9.3317 2.49014C9.58836 2.49014 9.80653 2.58114 9.98853 2.76314L11.9019 4.64964L15.4019 1.12281C15.728 0.786776 16.1196 0.521165 16.5524 0.342377C16.9853 0.163589 17.4501 0.0754189 17.9184 0.0833114C18.9217 0.0833114 19.7687 0.429811 20.4617 1.12164ZM4.7642 19.198L14.2259 9.73631L11.8459 7.35748L2.38536 16.8191V19.198H4.7642Z" fill="#616161"/>
</svg>
