<svg width="16" height="16" viewBox="0 0 16 16" fill="none" xmlns="http://www.w3.org/2000/svg">
<path d="M7.99996 0.00799411C8.20296 0.00799411 8.37496 0.0779942 8.51596 0.217994C8.67196 0.358994 8.74996 0.538994 8.74996 0.757994V7.24999H15.242C15.461 7.24999 15.641 7.32799 15.782 7.48399C15.922 7.62499 15.992 7.79699 15.992 7.99999C15.992 8.20299 15.922 8.38299 15.782 8.53999C15.7111 8.61 15.6266 8.66475 15.5337 8.70086C15.4408 8.73698 15.3415 8.7537 15.242 8.74999H8.74996V15.242C8.75298 15.3437 8.73357 15.4447 8.69313 15.5381C8.65269 15.6314 8.59221 15.7147 8.51596 15.782C8.44887 15.8504 8.36847 15.9043 8.27972 15.9405C8.19097 15.9766 8.09576 15.9941 7.99996 15.992C7.79972 15.9937 7.60644 15.9186 7.45996 15.782C7.38996 15.7111 7.33521 15.6266 7.2991 15.5337C7.26298 15.4409 7.24626 15.3416 7.24996 15.242V8.74999H0.757964C0.658387 8.7537 0.559107 8.73698 0.466237 8.70086C0.373367 8.66475 0.288875 8.61 0.217964 8.53999C0.0814036 8.39352 0.00623927 8.20024 0.00796359 7.99999C0.00796359 7.79699 0.0779636 7.62499 0.217964 7.48399C0.285286 7.40775 0.368565 7.34726 0.46189 7.30682C0.555215 7.26638 0.656298 7.24698 0.757964 7.24999H7.24996V0.757994C7.24626 0.658418 7.26298 0.559137 7.2991 0.466268C7.33521 0.373398 7.38996 0.288905 7.45996 0.217994C7.60644 0.0814341 7.79972 0.00626978 7.99996 0.00799411Z" fill="#9E9E9E"/>
</svg>
