<svg width="48" height="48" viewBox="0 0 48 48" fill="none" xmlns="http://www.w3.org/2000/svg">
<g clip-path="url(#clip0_763_356)">
<path d="M24 48C10.7452 48 0 37.2548 0 24C0 10.7452 10.7452 0 24 0C37.2548 0 48 10.7452 48 24C48 37.2548 37.2548 48 24 48Z" fill="url(#paint0_linear_763_356)"/>
<path d="M25 9H24.9844C22.2216 9 19.6072 10.0789 17.622 12.0401C17.4345 12.2251 17.0867 12.6127 17.0867 12.6127C16.9675 12.749 16.8522 12.8873 16.7408 13.0295C16.7271 13.047 16.6959 13.0879 16.6959 13.0879C15.3008 14.8719 14.4938 17.0492 14.4 19.3571V38.6202C14.4 38.6981 14.4235 38.7721 14.4645 38.8325C14.5329 38.9338 14.6501 39 14.781 39H18.3841C18.5951 39 18.7651 38.8306 18.7651 38.6202V28.8163C18.7651 28.7481 18.812 28.717 18.8315 28.7072C18.8745 28.6858 18.9233 28.6897 18.9624 28.717C20.7366 29.9712 22.8195 30.6236 24.9824 30.6236C26.6335 30.6236 28.1673 30.2419 29.5839 29.5486C33.142 27.8075 35.6 24.1032 35.6 19.8069C35.6 13.8319 30.854 9 25 9ZM24.9844 26.4929C21.4322 26.4929 18.5423 23.4975 18.5423 19.8167C18.5423 16.1358 21.4322 13.1405 24.9844 13.1405C28.5366 13.1405 31.4265 16.1358 31.4265 19.8167C31.4265 23.4975 28.5366 26.4929 24.9844 26.4929Z" fill="white"/>
</g>
<defs>
<linearGradient id="paint0_linear_763_356" x1="0" y1="0" x2="48" y2="48" gradientUnits="userSpaceOnUse">
<stop stop-color="#00FFED"/>
<stop offset="0.229577" stop-color="#19D7E7"/>
<stop offset="0.453133" stop-color="#7F4AD9"/>
<stop offset="0.667323" stop-color="#AF1FC6"/>
<stop offset="1" stop-color="#DF02C0"/>
</linearGradient>
<clipPath id="clip0_763_356">
<rect width="48" height="48" fill="white"/>
</clipPath>
</defs>
</svg>
