<svg width="20" height="20" viewBox="0 0 20 20" fill="none" xmlns="http://www.w3.org/2000/svg"> <path d="M20.0079 9.99998C20.0153 8.66202 19.7439 7.3372 19.2109 6.10998C18.7139 4.91876 17.9893 3.83588 17.0779 2.92198C16.1642 2.01063 15.0817 1.28612 13.8909 0.788976C12.6633 0.255823 11.3381 -0.0156156 9.99985 -0.00802375C8.6619 -0.0154765 7.33707 0.25596 6.10985 0.788976C4.91866 1.28603 3.83579 2.01054 2.92185 2.92198C2.01053 3.83562 1.28602 4.91814 0.788854 6.10898C0.255701 7.3365 -0.0157377 8.66169 -0.00814582 9.99998C-0.0155986 11.3379 0.255838 12.6628 0.788854 13.89C1.28586 15.0812 2.01038 16.1641 2.92185 17.078C3.83547 17.9893 4.91799 18.7139 6.10885 19.211C7.33638 19.7441 8.66156 20.0156 9.99985 20.008C11.3378 20.0154 12.6626 19.744 13.8899 19.211C15.0811 18.714 16.164 17.9895 17.0779 17.078C17.9892 16.1644 18.7138 15.0819 19.2109 13.891C19.744 12.6634 20.0154 11.3383 20.0079 9.99998ZM18.5079 9.99998C18.515 11.1371 18.2833 12.263 17.8279 13.305C17.4004 14.3209 16.7796 15.244 15.9999 16.023C15.227 16.7936 14.3117 17.4067 13.3049 17.828C12.2629 18.2834 11.137 18.5151 9.99985 18.508C8.86274 18.5151 7.73679 18.2834 6.69485 17.828C5.68311 17.4031 4.76089 16.7907 3.97685 16.023C3.20916 15.2389 2.59673 14.3167 2.17185 13.305C1.71638 12.263 1.48472 11.1371 1.49185 9.99998C1.49185 8.82798 1.71885 7.72698 2.17185 6.69498C2.59317 5.68815 3.20621 4.77283 3.97685 3.99998C4.75582 3.22025 5.67894 2.5994 6.69485 2.17198C7.73679 1.7165 8.86274 1.48484 9.99985 1.49198C11.1719 1.49198 12.2729 1.71898 13.3049 2.17198C14.3159 2.59584 15.2322 3.21733 15.9999 3.99998C16.7825 4.76769 17.404 5.68393 17.8279 6.69498C18.2833 7.73691 18.515 8.86286 18.5079 9.99998Z" fill="#158423"/> <path d="M14.7578 8.00798C14.7578 7.78898 14.6798 7.60898 14.5228 7.46898H14.5248C14.4539 7.39897 14.3694 7.34422 14.2765 7.30811C14.1837 7.27199 14.0844 7.25527 13.9848 7.25898C13.7818 7.25898 13.6098 7.32998 13.4698 7.46998L9.2028 11.734C9.1558 11.781 9.0858 11.804 8.9918 11.804C8.9138 11.804 8.8438 11.781 8.7818 11.734L6.5318 9.45998C6.46089 9.38997 6.37639 9.33522 6.28352 9.29911C6.19065 9.26299 6.09137 9.24627 5.9918 9.24998C5.7888 9.24998 5.6168 9.31997 5.4768 9.45998C5.3198 9.61698 5.2418 9.79698 5.2418 9.99998C5.24198 10.1013 5.26293 10.2014 5.30335 10.2943C5.34377 10.3872 5.4028 10.4708 5.4768 10.54L8.6408 13.703C8.6868 13.7491 8.74176 13.7853 8.8023 13.8094C8.86284 13.8335 8.92767 13.8449 8.9928 13.843C9.05759 13.8446 9.12204 13.8331 9.18221 13.809C9.24239 13.7849 9.29703 13.7489 9.3428 13.703L14.5228 8.52297C14.5973 8.45962 14.657 8.38064 14.6976 8.29164C14.7383 8.20264 14.7588 8.1058 14.7578 8.00798Z" fill="#158423"/> </svg>