<svg width="20" height="21" viewBox="0 0 20 21" fill="none" xmlns="http://www.w3.org/2000/svg">
<path d="M-0.00799561 4.5C-0.00799561 3.39 0.382004 2.445 1.164 1.664C1.945 0.883004 2.891 0.492004 4 0.492004V4.5H-0.00799561ZM8.00801 4.5H4V8.50801H-0.00799561V12.492H4V16.5H-0.00799561C-0.00799561 17.61 0.382004 18.555 1.164 19.336C1.945 20.117 2.891 20.508 4 20.508V16.5H8.00801V20.508H11.992V16.5H16V20.508C17.11 20.508 18.055 20.118 18.836 19.336C19.617 18.555 20.008 17.609 20.008 16.5H16V12.492H20.008V8.50801H16V4.5H20.008C20.008 3.39 19.618 2.445 18.836 1.664C18.055 0.883004 17.109 0.492004 16 0.492004V4.5H11.992V0.492004H8.00801V4.5ZM8.00801 8.50801V4.5H11.992V8.50801H8.00801ZM8.00801 12.492H4V8.50801H8.00801V12.492ZM11.992 12.492V8.50801H16V12.492H11.992ZM11.992 12.492V16.5H8.00801V12.492H11.992Z" fill="#9E9E9E"/>
</svg>
