<svg width="24" height="24" viewBox="0 0 24 24" fill="none" xmlns="http://www.w3.org/2000/svg">
<path d="M11.125 1.19901C11.125 0.962172 11.2066 0.761505 11.37 0.598172C11.4507 0.51184 11.5482 0.442969 11.6566 0.395813C11.7649 0.348658 11.8818 0.324218 12 0.324005C12.2368 0.324005 12.4375 0.415005 12.602 0.598172C12.784 0.761505 12.875 0.962172 12.875 1.19901V14.5982L15.5 11.9732C15.5806 11.8868 15.6781 11.8179 15.7865 11.7707C15.8949 11.7236 16.0118 11.6992 16.13 11.699C16.3656 11.699 16.5663 11.79 16.7308 11.9732C16.9128 12.1365 17.0038 12.3465 17.0038 12.602C17.005 12.716 16.9812 12.8289 16.934 12.9327C16.8869 13.0366 16.8175 13.1288 16.7308 13.2028L12.6288 17.3328C12.4582 17.4919 12.2332 17.5796 12 17.5778C11.7663 17.5799 11.5408 17.4922 11.37 17.3328L7.26912 13.2028C7.18237 13.1288 7.11295 13.0366 7.06578 12.9328C7.0186 12.829 6.99482 12.716 6.99612 12.602C6.99612 12.3453 7.08712 12.1365 7.26912 11.972C7.34328 11.8851 7.43565 11.8156 7.5397 11.7684C7.64374 11.7212 7.75689 11.6975 7.87112 11.699C7.98911 11.6993 8.10578 11.7238 8.21394 11.771C8.3221 11.8181 8.41944 11.8869 8.49996 11.9732L11.125 14.5982V1.19901Z" fill="#9E9E9E"/>
<path d="M1.90627 13.6818C1.94863 13.781 1.96851 13.8884 1.96449 13.9962V18.4249C1.95752 18.8946 2.04339 19.3611 2.21717 19.7975C2.39095 20.234 2.64922 20.6318 2.97715 20.9682C3.30328 21.3039 3.69472 21.5692 4.12732 21.7478C4.55993 21.9263 5.02454 22.0144 5.49249 22.0065H18.5078C19.4913 22.0065 20.322 21.66 20.9963 20.9682C21.6893 20.2565 22.0358 19.4095 22.0358 18.4249V13.995C22.0318 13.8869 22.0517 13.7793 22.0943 13.6798C22.1369 13.5803 22.201 13.4916 22.282 13.4199C22.3559 13.342 22.4449 13.2801 22.5436 13.238C22.6424 13.1958 22.7487 13.1744 22.856 13.1749C22.9634 13.1745 23.0698 13.1962 23.1685 13.2385C23.2672 13.2809 23.3562 13.343 23.43 13.421C23.5108 13.4926 23.5748 13.5812 23.6174 13.6804C23.66 13.7797 23.68 13.8871 23.6762 13.995V18.426C23.6762 19.8657 23.1652 21.1059 22.1443 22.1442C21.1422 23.165 19.93 23.676 18.5078 23.676H5.49132C4.07032 23.676 2.84882 23.165 1.82799 22.1442C0.82582 21.1059 0.32532 19.8657 0.32532 18.426V13.9962C0.321122 13.8882 0.340917 13.7806 0.38328 13.6811C0.425643 13.5817 0.489521 13.4928 0.57032 13.421C0.64421 13.3432 0.733256 13.2813 0.831973 13.2391C0.93069 13.197 1.03699 13.1755 1.14432 13.176C1.25193 13.1755 1.35851 13.1971 1.45744 13.2395C1.55637 13.2818 1.64556 13.344 1.71949 13.4222C1.80013 13.4939 1.86392 13.5825 1.90627 13.6818Z" fill="#9E9E9E"/>
</svg>
