<svg width="24" height="24" viewBox="0 0 24 24" fill="none" xmlns="http://www.w3.org/2000/svg">
<path d="M17.3408 13.2036C17.6789 13.4792 17.9853 13.7855 17.6831 14.1053C17.3809 14.4251 16.951 14.2004 16.6127 13.9249L17.3408 13.2036ZM7.66436 14.7458C7.38208 15.081 6.86543 15.1446 6.51037 14.8879C6.15532 14.6312 6.09633 14.1514 6.37863 13.8163L7.66436 14.7458ZM17.1599 13.3458C16.6127 13.9249 16.6127 13.9249 16.6127 13.9249L16.6135 13.9256C16.6135 13.9256 16.609 13.9221 16.6036 13.9179C16.5928 13.9096 16.5744 13.8955 16.5486 13.8766C16.4969 13.8388 16.416 13.7818 16.308 13.7123C16.0916 13.5731 15.7695 13.386 15.3596 13.2036C14.537 12.8377 13.3858 12.5021 12.0322 12.5875L11.9373 11.158C13.6477 11.0501 14.7277 11.8162 15.7233 12.2591C16.2225 12.4811 16.6181 12.7104 16.892 12.8866C17.0292 12.9748 17.1367 13.0502 17.212 13.1054C17.2497 13.133 17.2794 13.1556 17.301 13.1722C17.3117 13.1806 17.3205 13.1874 17.3272 13.1927C17.3304 13.1953 17.3332 13.1976 17.3356 13.1994L17.3385 13.2018L17.3397 13.2028L17.3408 13.2036C17.3408 13.2036 17.2943 13.2036 17.1599 13.3458ZM12.0322 12.5875C10.7077 12.6711 9.61536 13.2037 8.83712 13.7378C8.45026 14.0033 8.15005 14.2632 7.94865 14.4544C7.84825 14.5498 7.77327 14.6272 7.72522 14.6787C7.70123 14.7044 7.68401 14.7236 7.6738 14.7351C7.66869 14.7409 7.66533 14.7448 7.66375 14.7466L7.66436 14.7458C7.66436 14.7458 7.66436 14.7458 7.0215 14.281C6.37863 13.8163 6.37863 13.8163 6.37863 13.8163L6.37946 13.8153L6.38048 13.8141L6.38306 13.811C6.38502 13.8087 6.38746 13.8059 6.39037 13.8025C6.39618 13.7958 6.40391 13.7869 6.4135 13.7761C6.4327 13.7544 6.45943 13.7247 6.49354 13.6882C6.56169 13.6152 6.65956 13.5144 6.78571 13.3946C7.03744 13.1555 7.4052 12.8376 7.87784 12.5132C8.81859 11.8676 10.1978 11.2678 11.9373 11.158L12.0322 12.5875Z" fill="#72FFEA"/>
<path d="M20.228 10.3688C20.5532 10.685 20.5727 11.2218 20.2714 11.5677C19.9702 11.9136 19.4624 11.9377 19.1372 11.6215L20.228 10.3688ZM5.16202 11.0722C4.81717 11.369 4.31184 11.3156 4.03331 10.9529C3.75479 10.5902 3.86348 10.1969 4.20833 9.9001L5.16202 11.0722ZM19.6825 10.9951C19.1372 11.6215 19.1372 11.6215 19.1372 11.6215C19.1372 11.6215 19.1375 11.6217 19.1358 11.6202C19.1328 11.6173 19.1268 11.6118 19.1184 11.6039C19.1015 11.5882 19.0739 11.5631 19.0361 11.5298C18.9604 11.4633 18.8438 11.3644 18.6883 11.243C18.3773 11.0001 17.9129 10.669 17.3136 10.3289C16.1132 9.64771 14.3869 8.93936 12.2729 8.81674L12.3712 7.12205C14.7755 7.26152 16.7295 8.06604 18.0798 8.83224C18.7557 9.21581 19.2843 9.59198 19.6474 9.87544C19.8291 10.0173 19.9698 10.1363 20.0672 10.2219C20.1158 10.2647 20.1539 10.2993 20.1807 10.3242C20.1941 10.3366 20.2048 10.3467 20.2127 10.3542C20.2167 10.3579 20.2199 10.361 20.2225 10.3635L20.2257 10.3666L20.2269 10.3679L20.228 10.3688C20.228 10.3688 20.228 10.3688 19.6825 10.9951ZM12.2729 8.81674C10.1758 8.69509 8.38995 9.26261 7.12157 9.86736C6.48851 10.1692 5.98967 10.4778 5.65248 10.7082C5.48408 10.8233 5.35666 10.9184 5.27362 10.9828C5.23212 11.015 5.20177 11.0394 5.18301 11.0548C5.17363 11.0624 5.16716 11.0679 5.16365 11.0708C5.16189 11.0723 5.1606 11.0734 5.1606 11.0734L5.16202 11.0722C5.16202 11.0722 5.16202 11.0722 4.65772 10.4155C4.15342 9.75874 4.20833 9.9001 4.20833 9.9001L4.2094 9.89918L4.21075 9.89801L4.21435 9.89496C4.21714 9.89259 4.22069 9.88956 4.22504 9.88592C4.23369 9.87865 4.24543 9.86887 4.26021 9.85677C4.28973 9.83259 4.3314 9.79911 4.38476 9.75776C4.49143 9.67505 4.64507 9.56065 4.84223 9.42592C5.23614 9.15675 5.81029 8.74464 6.52858 8.40219C7.96281 7.71837 9.95012 6.98161 12.3712 7.12205L12.2729 8.81674Z" fill="#72FFEA"/>
<path d="M17.7443 13.458C18.0436 13.7747 18.0104 14.2574 17.67 14.5361C17.3297 14.8147 16.8112 14.7838 16.5118 14.467L17.7443 13.458ZM7.5711 14.467C7.27175 14.7838 6.75318 14.8147 6.41284 14.5361C6.0725 14.2574 6.03926 13.7747 6.33862 13.458L7.5711 14.467ZM17.128 13.9625C16.5118 14.467 16.5118 14.467 16.5118 14.467L16.513 14.4683C16.5113 14.4665 16.5072 14.4623 16.5018 14.4569C16.491 14.446 16.4729 14.4279 16.4476 14.4038C16.3969 14.3554 16.318 14.2828 16.2128 14.1939C16.0018 14.0157 15.6886 13.7752 15.2887 13.5345C14.4842 13.0503 13.3666 12.5875 12.0415 12.5875V11.0597C13.7818 11.0597 15.2074 11.6663 16.1799 12.2516C16.6684 12.5456 17.0522 12.8398 17.3159 13.0626C17.4481 13.1743 17.551 13.2687 17.6229 13.3373C17.6588 13.3717 17.6871 13.3996 17.7074 13.42C17.7176 13.4302 17.7256 13.4386 17.7319 13.445C17.735 13.4482 17.7375 13.4508 17.7396 13.453L17.7424 13.4559L17.7434 13.457L17.7443 13.458C17.7443 13.458 17.7443 13.458 17.128 13.9625ZM12.0415 12.5875C10.7163 12.5875 9.5987 13.0503 8.79423 13.5345C8.39434 13.7752 8.08111 14.0157 7.8701 14.1939C7.7649 14.2828 7.686 14.3554 7.63535 14.4038C7.61005 14.4279 7.59187 14.446 7.58106 14.4569C7.57566 14.4623 7.57277 14.4652 7.5711 14.467C7.5711 14.467 7.5711 14.467 6.95486 13.9625C6.33862 13.458 6.33862 13.458 6.33862 13.458L6.33951 13.457L6.34059 13.4559L6.34331 13.453C6.3454 13.4508 6.34798 13.4482 6.35106 13.445C6.35722 13.4386 6.36539 13.4302 6.37553 13.42C6.39584 13.3996 6.42407 13.3717 6.46003 13.3373C6.53188 13.2687 6.63484 13.1743 6.76702 13.0626C7.03077 12.8398 7.41443 12.5456 7.90301 12.2516C8.87548 11.6663 10.3011 11.0597 12.0415 11.0597V12.5875Z" fill="#A273ED"/>
<path d="M22.3925 6.45628C22.7487 6.70206 22.8184 7.16559 22.5482 7.49161C22.2779 7.81763 21.7701 7.88268 21.4139 7.6369L22.3925 6.45628ZM2.37051 8.18195C2.03461 8.45235 1.52305 8.42355 1.22792 8.11762C0.932787 7.81171 0.965844 7.34451 1.30175 7.07413L2.37051 8.18195ZM21.9031 7.04659C21.4139 7.6369 21.4139 7.6369 21.4139 7.6369L21.415 7.63768C21.415 7.63768 21.4122 7.63585 21.4096 7.63409C21.4044 7.63055 21.3954 7.6245 21.3826 7.61607C21.3569 7.59923 21.3162 7.57298 21.261 7.53865C21.1506 7.46998 20.9822 7.36917 20.7596 7.24707C20.3143 7.00274 19.6546 6.67419 18.8115 6.34759C17.1241 5.6938 14.7168 5.0532 11.8325 5.09999L11.8086 3.62169C14.9718 3.57038 17.6058 4.27266 19.4478 4.98626C20.3695 5.34336 21.0964 5.70465 21.5967 5.97922C21.847 6.11658 22.0412 6.23249 22.175 6.31568C22.2419 6.35729 22.2938 6.39074 22.3301 6.41463C22.3483 6.42658 22.3627 6.43614 22.3732 6.44314C22.3782 6.44664 22.3825 6.4495 22.3858 6.45169L22.3899 6.45449L22.3913 6.45552L22.3925 6.45628C22.3925 6.45628 22.3925 6.45628 21.9031 7.04659ZM11.8325 5.09999C8.96122 5.14656 6.58587 5.9225 4.92457 6.69057C4.09485 7.07417 3.44757 7.45387 3.01118 7.73498C2.79316 7.87542 2.62832 7.99092 2.52023 8.06951C2.46621 8.10877 2.42641 8.1388 2.40129 8.15804C2.38874 8.16767 2.37984 8.1746 2.3747 8.17866C2.37212 8.18068 2.37051 8.18195 2.37051 8.18195C2.37051 8.18195 2.37051 8.18195 1.83613 7.62804C1.30175 7.07413 1.30175 7.07413 1.30175 7.07413L1.30282 7.07327L1.30426 7.07212L1.30822 7.06895C1.31135 7.06646 1.31545 7.06321 1.32051 7.05924C1.33062 7.05129 1.34459 7.04041 1.36234 7.0268C1.39785 6.9996 1.44854 6.96142 1.51397 6.91386C1.64481 6.81874 1.83479 6.68587 2.08036 6.52769C2.57113 6.21153 3.28608 5.79282 4.19652 5.37189C6.01558 4.53089 8.63244 3.67322 11.8086 3.62169L11.8325 5.09999Z" fill="#72FFEA"/>
<path d="M20.1534 10.0111C20.4846 10.3274 20.5076 10.8643 20.2048 11.2103C19.902 11.5562 19.3879 11.5802 19.0567 11.2639L20.1534 10.0111ZM4.94328 11.2639C4.61204 11.5802 4.09803 11.5562 3.79518 11.2103C3.49233 10.8643 3.51534 10.3274 3.84657 10.0111L4.94328 11.2639ZM19.605 10.6375C19.0567 11.2639 19.0567 11.2639 19.0567 11.2639L19.0575 11.2646C19.0575 11.2646 19.0568 11.2641 19.0552 11.2625C19.0518 11.2593 19.0455 11.2536 19.0365 11.2453C19.0185 11.2289 18.9892 11.2028 18.9491 11.1682C18.869 11.0992 18.7458 10.9968 18.5823 10.8722C18.2548 10.6226 17.7686 10.2856 17.1463 9.94765C15.8994 9.27048 14.1272 8.60048 12 8.60048V6.90295C14.4559 6.90295 16.4862 7.67587 17.8961 8.44158C18.6022 8.82506 19.1579 9.2095 19.5404 9.50102C19.7318 9.64694 19.8804 9.77004 19.9834 9.85879C20.0349 9.90318 20.0751 9.93901 20.1035 9.96487C20.1177 9.9778 20.129 9.98823 20.1373 9.996C20.1415 9.99989 20.145 10.0031 20.1476 10.0056L20.1511 10.0089L20.1524 10.0101L20.1534 10.0111C20.1534 10.0111 20.1534 10.0111 19.605 10.6375ZM12 8.60048C9.87274 8.60048 8.10052 9.27048 6.85367 9.94765C6.23137 10.2856 5.74515 10.6226 5.41777 10.8722C5.25429 10.9968 5.13103 11.0992 5.05085 11.1682C5.01079 11.2028 4.98153 11.2289 4.96348 11.2453C4.95444 11.2536 4.94822 11.2593 4.94484 11.2625C4.94315 11.2641 4.94191 11.2652 4.94191 11.2652L4.94328 11.2639C4.94328 11.2639 4.94328 11.2639 4.39492 10.6375C3.84657 10.0111 3.84657 10.0111 3.84657 10.0111L3.8476 10.0101L3.8489 10.0089L3.85236 10.0056C3.85504 10.0031 3.85845 9.99989 3.86263 9.996C3.87095 9.98823 3.88225 9.9778 3.89648 9.96487C3.92491 9.93901 3.96507 9.90318 4.01659 9.85879C4.11958 9.77004 4.26822 9.64694 4.45963 9.50102C4.84207 9.2095 5.39777 8.82506 6.10385 8.44158C7.51373 7.67587 9.54404 6.90295 12 6.90295V8.60048Z" fill="#6929D1"/>
<path d="M22.7116 6.63142C23.0567 6.89633 23.0979 7.36291 22.8038 7.67358C22.5095 7.98425 21.9912 8.02134 21.6461 7.75644L22.7116 6.63142ZM2.35397 7.75644C2.00887 8.02134 1.49059 7.98425 1.19633 7.67358C0.902079 7.36291 0.943284 6.89633 1.28837 6.63142L2.35397 7.75644ZM22.1789 7.19393C21.6461 7.75644 21.6461 7.75644 21.6461 7.75644C21.6461 7.75644 21.6445 7.75518 21.6418 7.7532C21.6364 7.74924 21.6274 7.74245 21.6144 7.73303C21.5886 7.71418 21.5479 7.68482 21.4924 7.64642C21.3815 7.56962 21.2124 7.45681 20.989 7.31991C20.5418 7.04592 19.8792 6.67677 19.0316 6.30667C17.3341 5.56564 14.9126 4.82835 12 4.82835V3.34985C15.2217 3.34985 17.8895 4.16496 19.7481 4.97636C20.6783 5.38247 21.4103 5.78953 21.9132 6.09767C22.1648 6.25187 22.3595 6.38163 22.4939 6.4746C22.561 6.52111 22.6129 6.55845 22.6494 6.58509C22.6676 6.59841 22.6821 6.60906 22.6924 6.61683C22.6977 6.62074 22.7018 6.62391 22.7051 6.62635C22.7067 6.62757 22.7092 6.62944 22.7092 6.62944L22.7107 6.63057L22.7116 6.63142C22.7116 6.63142 22.7116 6.63142 22.1789 7.19393ZM12 4.82835C9.08746 4.82835 6.6659 5.56564 4.96855 6.30667C4.12081 6.67677 3.45818 7.04592 3.01102 7.31991C2.78761 7.45681 2.61856 7.56962 2.50765 7.64642C2.45221 7.68482 2.41136 7.71418 2.38558 7.73303C2.37269 7.74245 2.36356 7.74924 2.35827 7.7532C2.35563 7.75518 2.35397 7.75644 2.35397 7.75644C2.35397 7.75644 2.35397 7.75644 1.82116 7.19393C1.28837 6.63142 1.28837 6.63142 1.28837 6.63142L1.28947 6.63057L1.29095 6.62944C1.29095 6.62944 1.29341 6.62757 1.29502 6.62635C1.29823 6.62391 1.30244 6.62074 1.30764 6.61683C1.31803 6.60906 1.33237 6.59841 1.35059 6.58509C1.38705 6.55845 1.43908 6.52111 1.50622 6.4746C1.64047 6.38163 1.83531 6.25187 2.08693 6.09767C2.58983 5.78953 3.32172 5.38247 4.25194 4.97636C6.11046 4.16496 8.7783 3.34985 12 3.34985V4.82835Z" fill="#4B2588"/>
<path fill-rule="evenodd" clip-rule="evenodd" d="M12 16.2583C11.4292 16.2583 10.9664 16.7211 10.9664 17.2919C10.9664 17.8627 11.4292 18.3255 12 18.3255C12.5708 18.3255 13.0336 17.8627 13.0336 17.2919C13.0336 16.7211 12.5708 16.2583 12 16.2583ZM9.46641 17.2919C9.46641 15.8926 10.6007 14.7583 12 14.7583C13.3993 14.7583 14.5336 15.8926 14.5336 17.2919C14.5336 18.6912 13.3993 19.8255 12 19.8255C10.6007 19.8255 9.46641 18.6912 9.46641 17.2919Z" fill="#D8C5F7"/>
<path d="M13.7555 16.2197C13.5062 16.469 13.5062 16.8733 13.7555 17.1226L16.8316 20.1986C17.0809 20.448 17.4852 20.448 17.7345 20.1986C17.9838 19.9493 17.9838 19.5451 17.7345 19.2957L14.6585 16.2197C14.4091 15.9703 14.0049 15.9703 13.7555 16.2197Z" fill="#A52343"/>
<path d="M17.7345 16.2197C17.9838 16.469 17.9838 16.8733 17.7345 17.1226L14.6584 20.1986C14.4091 20.448 14.0048 20.448 13.7555 20.1986C13.5062 19.9493 13.5062 19.5451 13.7555 19.2957L16.8315 16.2197C17.0809 15.9703 17.4851 15.9703 17.7345 16.2197Z" fill="#A52343"/>
<path d="M13.7555 15.9597C13.5062 16.209 13.5062 16.6133 13.7555 16.8626L16.8316 19.9386C17.0809 20.188 17.4852 20.188 17.7345 19.9386C17.9838 19.6893 17.9838 19.285 17.7345 19.0357L14.6585 15.9597C14.4091 15.7103 14.0049 15.7103 13.7555 15.9597Z" fill="#F84973"/>
<path d="M17.7345 15.9597C17.9838 16.209 17.9838 16.6133 17.7345 16.8626L14.6584 19.9386C14.4091 20.188 14.0048 20.188 13.7555 19.9386C13.5062 19.6893 13.5062 19.285 13.7555 19.0357L16.8315 15.9597C17.0809 15.7103 17.4851 15.7103 17.7345 15.9597Z" fill="#F84973"/>
</svg>
